# xmcd
#
# Track frame offsets: 
#        150
#        11657
#        24247
#        37317
#        48320
#        61787
#        72462
#        85275
#        98910
#        113835
#        128600
#        145050
#
# Disc length: 2102 seconds
#
# Revision: 0
# Processed by: cddbd v1.5.2PL0 Copyright (c) Steve Scherf et al.
# Submitted via: ExactAudioCopy v1.0b3
#
DISCID=9e08340c
DTITLE=John Walker - Words
DYEAR=1992
DGENRE=Country
TTITLE0=Adrianne
TTITLE1=Goin' Nowhere
TTITLE2=Price Of Change
TTITLE3=Depend On Me
TTITLE4=Current Affair
TTITLE5=Lover's Lane
TTITLE6=Words
TTITLE7=Pointless Conversation
TTITLE8=Brothers
TTITLE9=Changes In The Weather
TTITLE10=Fool Of Me
TTITLE11=Turn At The Wheel
EXTD=
EXTT0=
EXTT1=
EXTT2=
EXTT3=
EXTT4=
EXTT5=
EXTT6=
EXTT7=
EXTT8=
EXTT9=
EXTT10=
EXTT11=
PLAYORDER=
